# xmcd
#
# Track frame offsets: 
#        150
#        31458
#        59081
#        84975
#        113038
#        141756
#        167674
#        187760
#
# Disc length: 2905 seconds
#
# Revision: 1
# Processed by: cddbd v1.5.2PL0 Copyright (c) Steve Scherf et al.
# Submitted via: ExactAudioCopy v0.99pb4
#
DISCID=630b5708
DTITLE=Bobby Rodriguez y la Compania - Salsa at Woodstock
DYEAR=1976
DGENRE=Salsa
TTITLE0=Sunday Kind Of Love
TTITLE1=El Buzon
TTITLE2=A Bailar Salsa
TTITLE3=Workout
TTITLE4=What Happened
TTITLE5=No Lo Niegues
TTITLE6=La Mas Fea
TTITLE7=Ahora te Toca a Ti
EXTD=
EXTT0=
EXTT1=
EXTT2=
EXTT3=
EXTT4=
EXTT5=
EXTT6=
EXTT7=
PLAYORDER=
